<svg class="icon" fill="none" viewBox="0 0 20 20" xmlns="http://www.w3.org/2000/svg">
					<path fill-rule="evenodd" clip-rule="evenodd" d="M16.0002 8.00117C16.0002 12.419 12.4186 16.0004 8.00059 16.0004C3.58252 16.0004 0.000976562 12.419 0.000976562 8.00117C0.000976562 3.58333 3.58252 0.00195312 8.00059 0.00195312C12.4186 0.00195312 16.0002 3.58333 16.0002 8.00117ZM7.62149 10.1613C7.93236 10.3709 8.19774 10.5499 8.66774 10.5852C10.9773 10.7586 12.2673 8.34366 11.9525 6.11371C11.6726 4.13794 9.64527 3.13154 7.48521 3.36663C5.77724 3.55264 4.07443 4.89676 4.00344 6.81641C3.95946 7.98915 4.30158 8.86882 5.44854 9.11583C5.77489 8.55569 5.60423 8.28213 5.4192 7.98554C5.32213 7.82996 5.22112 7.66804 5.18583 7.4551C4.76474 4.92359 8.18909 3.19541 9.9812 4.96378C11.2216 6.18863 10.4051 9.9543 8.40503 9.56334C7.40676 9.36822 7.70351 8.46074 8.00032 7.55304C8.27313 6.71876 8.546 5.8843 7.81346 5.60261C6.57071 5.12424 5.91067 7.06557 6.49987 8.03006C6.40882 8.46694 6.29012 8.89716 6.17017 9.33193C5.83469 10.5479 5.48937 11.7995 5.71171 13.332C6.68834 12.6427 7.01807 11.3231 7.28788 9.94655C7.41018 10.0187 7.51834 10.0917 7.62149 10.1613Z"></path>
				</svg>