<svg width="58" height="58" viewBox="0 0 58 58" fill="none" xmlns="http://www.w3.org/2000/svg">
<path d="M55.4883 12.75H46.5234C46.9922 12.125 47.3438 11.4414 47.5781 10.6992C47.8516 9.91797 47.9883 9.09766 47.9883 8.23828C47.9883 6.16797 47.2461 4.41016 45.7617 2.96484C44.3164 1.48047 42.5586 0.738281 40.4883 0.738281C38.418 0.738281 36.543 1.38281 34.8633 2.67188C33.2227 3.92188 31.9727 5.03516 31.1133 6.01172C30.6055 6.59766 30.1172 7.22266 29.6484 7.88672C29.2188 8.51172 28.8281 9.11719 28.4766 9.70312C28.1641 9.11719 27.7734 8.51172 27.3047 7.88672C26.875 7.22266 26.4062 6.59766 25.8984 6.01172C25.0391 5.03516 23.7695 3.92188 22.0898 2.67188C20.4492 1.38281 18.5938 0.738281 16.5234 0.738281C14.4531 0.738281 12.6758 1.48047 11.1914 2.96484C9.74609 4.41016 9.02344 6.16797 9.02344 8.23828C9.02344 9.09766 9.14062 9.91797 9.375 10.6992C9.64844 11.4414 10.0195 12.125 10.4883 12.75H1.52344C1.09375 12.75 0.722656 12.9062 0.410156 13.2188C0.136719 13.4922 0 13.8437 0 14.2734V23.2383C0 23.668 0.136719 24.0391 0.410156 24.3516C0.722656 24.625 1.09375 24.7617 1.52344 24.7617H2.98828V53.2383C2.98828 54.4883 3.41797 55.543 4.27734 56.4023C5.17578 57.3008 6.25 57.75 7.5 57.75H49.5117C50.7617 57.75 51.8164 57.3008 52.6758 56.4023C53.5742 55.543 54.0234 54.4883 54.0234 53.2383V24.7617H55.4883C55.918 24.7617 56.2695 24.625 56.543 24.3516C56.8555 24.0391 57.0117 23.668 57.0117 23.2383V14.2734C57.0117 13.8437 56.8555 13.4922 56.543 13.2188C56.2695 12.9062 55.918 12.75 55.4883 12.75ZM33.3984 8.00391C34.5703 6.63672 35.7617 5.58203 36.9727 4.83984C38.2227 4.09766 39.3945 3.72656 40.4883 3.72656C41.7383 3.72656 42.793 4.17578 43.6523 5.07422C44.5508 5.93359 45 6.98828 45 8.23828C45 9.48828 44.5508 10.5625 43.6523 11.4609C42.793 12.3203 41.7383 12.75 40.4883 12.75H30.3516C30.625 12.0859 31.0156 11.3438 31.5234 10.5234C32.0312 9.66406 32.6562 8.82422 33.3984 8.00391ZM32.9883 54.7617H24.0234V15.7383H32.9883V54.7617ZM12.0117 8.23828C12.0117 6.98828 12.4414 5.93359 13.3008 5.07422C14.1992 4.17578 15.2734 3.72656 16.5234 3.72656C17.5781 3.72656 18.7305 4.09766 19.9805 4.83984C21.2305 5.58203 22.4414 6.63672 23.6133 8.00391C24.3555 8.82422 24.9805 9.66406 25.4883 10.5234C25.9961 11.3438 26.3867 12.0859 26.6602 12.75H16.5234C15.2734 12.75 14.1992 12.3203 13.3008 11.4609C12.4414 10.5625 12.0117 9.48828 12.0117 8.23828ZM2.98828 15.7383H20.9766V21.7734H2.98828V15.7383ZM5.97656 53.2383V24.7617H20.9766V54.7617H7.5C7.07031 54.7617 6.69922 54.6055 6.38672 54.293C6.11328 54.0195 5.97656 53.668 5.97656 53.2383ZM50.9766 53.2383C50.9766 53.668 50.8203 54.0195 50.5078 54.293C50.2344 54.6055 49.9023 54.7617 49.5117 54.7617H35.9766V24.7617H50.9766V53.2383ZM54.0234 21.7734H35.9766V15.7383H54.0234V21.7734Z" fill="white"></path>
<path d="M46.5234 12.75L45.7234 12.15L44.5234 13.75H46.5234V12.75ZM47.5781 10.6992L46.6343 10.3689L46.6292 10.3834L46.6245 10.3981L47.5781 10.6992ZM45.7617 2.96484L45.0452 3.66246L45.0546 3.67201L45.0641 3.68131L45.7617 2.96484ZM34.8633 2.67188L35.4693 3.46731L35.4721 3.46518L34.8633 2.67188ZM31.1133 6.01172L30.3625 5.35107L30.3576 5.35679L31.1133 6.01172ZM29.6484 7.88672L28.8314 7.30999L28.8244 7.32019L29.6484 7.88672ZM28.4766 9.70312L27.5942 10.1737L28.4254 11.7321L29.3341 10.2176L28.4766 9.70312ZM27.3047 7.88672L26.4651 8.42997L26.4839 8.45903L26.5047 8.48672L27.3047 7.88672ZM25.8984 6.01172L26.6541 5.35677L26.6492 5.35109L25.8984 6.01172ZM22.0898 2.67188L21.472 3.45819L21.4823 3.46629L21.4928 3.47411L22.0898 2.67188ZM9.375 10.6992L8.41717 10.9866L8.42602 11.016L8.43666 11.0449L9.375 10.6992ZM10.4883 12.75V13.75H12.4883L11.2883 12.15L10.4883 12.75ZM0.410156 24.3516L-0.342421 25.0101L-0.29852 25.0602L-0.248348 25.1041L0.410156 24.3516ZM2.98828 24.7617H3.98828V23.7617H2.98828V24.7617ZM52.6758 56.4023L51.9846 55.6797L51.9685 55.6951L51.9531 55.7111L52.6758 56.4023ZM54.0234 24.7617V23.7617H53.0234V24.7617H54.0234ZM56.543 13.2188L55.7904 13.8773L55.8343 13.9274L55.8845 13.9713L56.543 13.2188ZM33.3984 8.00391L34.14 8.67482L34.149 8.66488L34.1577 8.6547L33.3984 8.00391ZM36.9727 4.83984L36.4621 3.9799L36.4501 3.98724L36.9727 4.83984ZM43.6523 5.07422L42.9297 5.76544L42.9451 5.7815L42.9611 5.79686L43.6523 5.07422ZM30.3516 12.75L29.4269 12.3693L28.8583 13.75H30.3516V12.75ZM31.5234 10.5234L32.3737 11.0498L32.3791 11.041L32.3844 11.0322L31.5234 10.5234ZM32.9883 54.7617V55.7617H33.9883V54.7617H32.9883ZM24.0234 54.7617H23.0234V55.7617H24.0234V54.7617ZM24.0234 15.7383V14.7383H23.0234V15.7383H24.0234ZM32.9883 15.7383H33.9883V14.7383H32.9883V15.7383ZM23.6133 8.00391L22.854 8.6547L22.8628 8.66488L22.8717 8.67482L23.6133 8.00391ZM25.4883 10.5234L24.6274 11.0322L24.6326 11.041L24.638 11.0498L25.4883 10.5234ZM26.6602 12.75V13.75H28.1534L27.5848 12.3693L26.6602 12.75ZM13.3008 11.4609L12.5781 12.1522L12.5935 12.1682L12.6096 12.1836L13.3008 11.4609ZM2.98828 15.7383V14.7383H1.98828V15.7383H2.98828ZM20.9766 15.7383H21.9766V14.7383H20.9766V15.7383ZM20.9766 21.7734V22.7734H21.9766V21.7734H20.9766ZM2.98828 21.7734H1.98828V22.7734H2.98828V21.7734ZM5.97656 24.7617V23.7617H4.97656V24.7617H5.97656ZM20.9766 24.7617H21.9766V23.7617H20.9766V24.7617ZM20.9766 54.7617V55.7617H21.9766V54.7617H20.9766ZM50.5078 54.293L49.8493 53.5404L49.7991 53.5843L49.7552 53.6345L50.5078 54.293ZM35.9766 54.7617H34.9766V55.7617H35.9766V54.7617ZM35.9766 24.7617V23.7617H34.9766V24.7617H35.9766ZM50.9766 24.7617H51.9766V23.7617H50.9766V24.7617ZM54.0234 21.7734V22.7734H55.0234V21.7734H54.0234ZM35.9766 21.7734H34.9766V22.7734H35.9766V21.7734ZM35.9766 15.7383V14.7383H34.9766V15.7383H35.9766ZM54.0234 15.7383H55.0234V14.7383H54.0234V15.7383ZM55.4883 11.75H46.5234V13.75H55.4883V11.75ZM47.3234 13.35C47.8596 12.6351 48.2632 11.8505 48.5317 11.0003L46.6245 10.3981C46.4243 11.0323 46.1248 11.6149 45.7234 12.15L47.3234 13.35ZM48.522 11.0296C48.834 10.1381 48.9883 9.20579 48.9883 8.23828H46.9883C46.9883 8.98952 46.8691 9.69783 46.6343 10.3689L48.522 11.0296ZM48.9883 8.23828C48.9883 5.89791 48.1369 3.88178 46.4593 2.24837L45.0641 3.68131C46.3553 4.93853 46.9883 6.43803 46.9883 8.23828H48.9883ZM46.4782 2.26723C44.8448 0.589675 42.8287 -0.261719 40.4883 -0.261719V1.73828C42.2885 1.73828 43.788 2.37126 45.0452 3.66246L46.4782 2.26723ZM40.4883 -0.261719C38.1925 -0.261719 36.1045 0.458751 34.2545 1.87857L35.4721 3.46518C36.9814 2.30687 38.6435 1.73828 40.4883 1.73828V-0.261719ZM34.2572 1.87644C32.5907 3.14615 31.2833 4.30486 30.3626 5.35109L31.864 6.67235C32.6621 5.76545 33.8546 4.6976 35.4693 3.46731L34.2572 1.87644ZM30.3576 5.35679C29.8271 5.96895 29.3184 6.62019 28.8315 7.31004L30.4654 8.4634C30.916 7.82513 31.3839 7.22637 31.869 6.66665L30.3576 5.35679ZM28.8244 7.32019C28.3843 7.96037 27.9823 8.58321 27.6191 9.18863L29.3341 10.2176C29.6739 9.65117 30.0532 9.06307 30.4725 8.45325L28.8244 7.32019ZM29.3589 9.23254C29.0186 8.59436 28.599 7.94574 28.1047 7.28672L26.5047 8.48672C26.9479 9.0777 27.3096 9.64002 27.5942 10.1737L29.3589 9.23254ZM28.1443 7.34347C27.6898 6.64106 27.1931 5.97865 26.6541 5.35679L25.1427 6.66665C25.6194 7.21666 26.0602 7.80426 26.4651 8.42997L28.1443 7.34347ZM26.6492 5.35109C25.7244 4.30028 24.3931 3.13941 22.6869 1.86964L21.4928 3.47411C23.146 4.70434 24.3537 5.77003 25.1477 6.67235L26.6492 5.35109ZM22.7077 1.88556C20.8923 0.459236 18.8197 -0.261719 16.5234 -0.261719V1.73828C18.3678 1.73828 20.0061 2.30639 21.472 3.45819L22.7077 1.88556ZM16.5234 -0.261719C14.1838 -0.261719 12.1533 0.588767 10.4843 2.25774L11.8985 3.67195C13.1983 2.37217 14.7225 1.73828 16.5234 1.73828V-0.261719ZM10.4843 2.25774C8.84875 3.89328 8.02344 5.90659 8.02344 8.23828H10.0234C10.0234 6.42935 10.6434 4.92703 11.8985 3.67195L10.4843 2.25774ZM8.02344 8.23828C8.02344 9.18975 8.15337 10.1072 8.41717 10.9866L10.3328 10.4119C10.1279 9.72872 10.0234 9.00556 10.0234 8.23828H8.02344ZM8.43666 11.0449C8.74321 11.877 9.1606 12.6464 9.68828 13.35L11.2883 12.15C10.8785 11.6036 10.5537 11.0058 10.3133 10.3535L8.43666 11.0449ZM10.4883 11.75H1.52344V13.75H10.4883V11.75ZM1.52344 11.75C0.820189 11.75 0.197102 12.0176 -0.29695 12.5116L1.11726 13.9259C1.24821 13.7949 1.36731 13.75 1.52344 13.75V11.75ZM-0.29695 12.5116C-0.779592 12.9943 -1 13.6108 -1 14.2734H1C1 14.0767 1.05303 13.9901 1.11726 13.9259L-0.29695 12.5116ZM-1 14.2734V23.2383H1V14.2734H-1ZM-1 23.2383C-1 23.901 -0.781338 24.5084 -0.342421 25.0101L1.16273 23.6931C1.05478 23.5697 1 23.435 1 23.2383H-1ZM-0.248348 25.1041C0.253271 25.5431 0.860756 25.7617 1.52344 25.7617V23.7617C1.32674 23.7617 1.19204 23.7069 1.06866 23.599L-0.248348 25.1041ZM1.52344 25.7617H2.98828V23.7617H1.52344V25.7617ZM1.98828 24.7617V53.2383H3.98828V24.7617H1.98828ZM1.98828 53.2383C1.98828 54.745 2.51742 56.0566 3.57024 57.1095L4.98445 55.6952C4.31851 55.0293 3.98828 54.2315 3.98828 53.2383H1.98828ZM3.57024 57.1095C4.65275 58.192 5.97992 58.75 7.5 58.75V56.75C6.52008 56.75 5.69882 56.4096 4.98445 55.6952L3.57024 57.1095ZM7.5 58.75H49.5117V56.75H7.5V58.75ZM49.5117 58.75C51.033 58.75 52.3492 58.1904 53.3984 57.0936L51.9531 55.7111C51.2836 56.4111 50.4905 56.75 49.5117 56.75V58.75ZM53.367 57.125C54.4639 56.0758 55.0234 54.7595 55.0234 53.2383H53.0234C53.0234 54.217 52.6846 55.0101 51.9846 55.6797L53.367 57.125ZM55.0234 53.2383V24.7617H53.0234V53.2383H55.0234ZM54.0234 25.7617H55.4883V23.7617H54.0234V25.7617ZM55.4883 25.7617C56.1509 25.7617 56.7674 25.5413 57.2501 25.0587L55.8359 23.6445C55.7716 23.7087 55.6851 23.7617 55.4883 23.7617V25.7617ZM57.2501 25.0587C57.7441 24.5646 58.0117 23.9415 58.0117 23.2383H56.0117C56.0117 23.3944 55.9668 23.5135 55.8359 23.6445L57.2501 25.0587ZM58.0117 23.2383V14.2734H56.0117V23.2383H58.0117ZM58.0117 14.2734C58.0117 13.5668 57.7395 12.9369 57.2015 12.4662L55.8845 13.9713C55.9715 14.0475 56.0117 14.1207 56.0117 14.2734H58.0117ZM57.2955 12.5602C56.8248 12.0223 56.1949 11.75 55.4883 11.75V13.75C55.6411 13.75 55.7143 13.7902 55.7904 13.8773L57.2955 12.5602ZM34.1577 8.6547C35.279 7.34654 36.3934 6.36778 37.4952 5.69244L36.4501 3.98724C35.1301 4.79628 33.8616 5.9269 32.6392 7.35312L34.1577 8.6547ZM37.4832 5.6997C38.628 5.01995 39.624 4.72656 40.4883 4.72656V2.72656C39.165 2.72656 37.8173 3.17536 36.4621 3.97999L37.4832 5.6997ZM40.4883 4.72656C41.467 4.72656 42.2601 5.06544 42.9297 5.76544L44.375 4.383C43.3258 3.28612 42.0095 2.72656 40.4883 2.72656V4.72656ZM42.9611 5.79686C43.6611 6.46643 44 7.25953 44 8.23828H46C46 6.71703 45.4404 5.40076 44.3436 4.35158L42.9611 5.79686ZM44 8.23828C44 9.2182 43.6596 10.0395 42.9452 10.7538L44.3595 12.168C45.442 11.0855 46 9.75836 46 8.23828H44ZM42.9452 10.7538C42.2793 11.4198 41.4815 11.75 40.4883 11.75V13.75C41.995 13.75 43.3066 13.2209 44.3595 12.168L42.9452 10.7538ZM40.4883 11.75H30.3516V13.75H40.4883V11.75ZM31.2762 13.1307C31.5232 12.531 31.8855 11.8384 32.3737 11.0498L30.6732 9.99708C30.1457 10.8491 29.7268 11.6409 29.4269 12.3693L31.2762 13.1307ZM32.3844 11.0322C32.8545 10.2366 33.4381 9.45052 34.14 8.67482L32.6569 7.33299C31.8744 8.19792 31.208 9.09155 30.6625 10.0147L32.3844 11.0322ZM32.9883 53.7617H24.0234V55.7617H32.9883V53.7617ZM25.0234 54.7617V15.7383H23.0234V54.7617H25.0234ZM24.0234 16.7383H32.9883V14.7383H24.0234V16.7383ZM31.9883 15.7383V54.7617H33.9883V15.7383H31.9883ZM13.0117 8.23828C13.0117 7.24503 13.3419 6.44726 14.0079 5.78133L12.5937 4.36711C11.5409 5.41992 11.0117 6.73153 11.0117 8.23828H13.0117ZM14.0079 5.78133C14.7223 5.06696 15.5435 4.72656 16.5234 4.72656V2.72656C15.0034 2.72656 13.6762 3.2846 12.5937 4.36711L14.0079 5.78133ZM16.5234 4.72656C17.3429 4.72656 18.3184 5.016 19.4699 5.6997L20.491 3.97999C19.1425 3.17931 17.8133 2.72656 16.5234 2.72656V4.72656ZM19.4699 5.6997C20.6069 6.37476 21.7368 7.35133 22.854 8.6547L24.3725 7.35312C23.146 5.92211 21.8541 4.7893 20.491 3.97999L19.4699 5.6997ZM22.8717 8.67482C23.5736 9.45052 24.1572 10.2366 24.6274 11.0322L26.3492 10.0147C25.8037 9.09155 25.1374 8.19792 24.3548 7.33299L22.8717 8.67482ZM24.638 11.0498C25.1262 11.8384 25.4885 12.531 25.7355 13.1307L27.5848 12.3693C27.2849 11.6409 26.866 10.8491 26.3385 9.99708L24.638 11.0498ZM26.6602 11.75H16.5234V13.75H26.6602V11.75ZM16.5234 11.75C15.5294 11.75 14.7032 11.4186 13.992 10.7383L12.6096 12.1836C13.6952 13.222 15.0175 13.75 16.5234 13.75V11.75ZM14.0234 10.7697C13.3431 10.0585 13.0117 9.23231 13.0117 8.23828H11.0117C11.0117 9.74425 11.5397 11.0665 12.5781 12.1522L14.0234 10.7697ZM2.98828 16.7383H20.9766V14.7383H2.98828V16.7383ZM19.9766 15.7383V21.7734H21.9766V15.7383H19.9766ZM20.9766 20.7734H2.98828V22.7734H20.9766V20.7734ZM3.98828 21.7734V15.7383H1.98828V21.7734H3.98828ZM6.97656 53.2383V24.7617H4.97656V53.2383H6.97656ZM5.97656 25.7617H20.9766V23.7617H5.97656V25.7617ZM19.9766 24.7617V54.7617H21.9766V24.7617H19.9766ZM20.9766 53.7617H7.5V55.7617H20.9766V53.7617ZM7.5 53.7617C7.34387 53.7617 7.22477 53.7168 7.09383 53.5859L5.67961 55.0001C6.17366 55.4941 6.79675 55.7617 7.5 55.7617V53.7617ZM7.09383 53.5859C7.02959 53.5216 6.97656 53.4351 6.97656 53.2383H4.97656C4.97656 53.9009 5.19697 54.5174 5.67961 55.0001L7.09383 53.5859ZM49.9766 53.2383C49.9766 53.3911 49.9363 53.4643 49.8493 53.5404L51.1663 55.0455C51.7043 54.5748 51.9766 53.9449 51.9766 53.2383H49.9766ZM49.7552 53.6345C49.6581 53.7455 49.594 53.7617 49.5117 53.7617V55.7617C50.2107 55.7617 50.8106 55.4655 51.2604 54.9515L49.7552 53.6345ZM49.5117 53.7617H35.9766V55.7617H49.5117V53.7617ZM36.9766 54.7617V24.7617H34.9766V54.7617H36.9766ZM35.9766 25.7617H50.9766V23.7617H35.9766V25.7617ZM49.9766 24.7617V53.2383H51.9766V24.7617H49.9766ZM54.0234 20.7734H35.9766V22.7734H54.0234V20.7734ZM36.9766 21.7734V15.7383H34.9766V21.7734H36.9766ZM35.9766 16.7383H54.0234V14.7383H35.9766V16.7383ZM53.0234 15.7383V21.7734H55.0234V15.7383H53.0234Z" fill="white"></path>
</svg>