<svg class="icon" fill="none" viewBox="0 0 20 20" xmlns="http://www.w3.org/2000/svg">
					<path d="M5.75382 16V9.06667H3.33325V5.86667H5.75382V3.63333C5.75382 3.02222 5.8441 2.48889 6.02466 2.03333C6.2165 1.57778 6.47605 1.2 6.8033 0.9C7.14185 0.6 7.54245 0.377778 8.00513 0.233333C8.4678 0.0777778 8.97561 0 9.52856 0C10.0477 0 10.516 0.0166667 10.9335 0.05C11.351 0.0722222 11.6219 0.0944444 11.746 0.116667V2.65H10.2226C9.62448 2.65 9.22952 2.77778 9.03768 3.03333C8.84584 3.28889 8.74992 3.62222 8.74992 4.03333V5.86667H11.9999L10.9166 9.06667H8.74992V16H5.75382Z"></path>
				</svg>