<svg class="icon" fill="none" viewBox="0 0 20 20" xmlns="http://www.w3.org/2000/svg">
					<path d="M8.86873 6.64577C8.86873 6.2679 8.86232 5.88981 8.8716 5.51216C8.87582 5.34005 8.82077 5.2754 8.64271 5.27668C7.71645 5.28334 6.79011 5.28296 5.86377 5.27683C5.69401 5.2757 5.63058 5.32206 5.63088 5.50369C5.63563 8.92562 5.63556 12.3476 5.63103 15.7695C5.63073 15.9473 5.68737 16.0007 5.86083 15.9995C6.82978 15.9932 7.7988 15.9926 8.76775 15.9999C8.944 16.0013 8.99347 15.9467 8.99279 15.7707C8.98646 14.1453 8.98442 12.5198 8.99242 10.8944C8.99438 10.4931 9.01896 10.0897 9.0664 9.69119C9.11813 9.25616 9.25705 8.84486 9.56196 8.51304C9.95337 8.08708 10.4618 7.99104 11.0108 8.00133C11.7769 8.01569 12.2544 8.3736 12.4733 9.109C12.6144 9.58291 12.6257 10.0702 12.6259 10.5585C12.6268 12.2878 12.626 14.0172 12.6266 15.7464C12.6267 15.988 12.6344 15.996 12.8713 15.9962C13.8159 15.9969 14.7605 15.9966 15.7051 15.9964C15.9996 15.9964 16.0011 15.996 15.9999 15.7049C15.9913 13.6097 15.9858 11.5145 15.9708 9.41927C15.9662 8.77741 15.8803 8.14273 15.705 7.52402C15.4366 6.57673 14.931 5.80413 14.0024 5.40062C13.0308 4.97844 12.0133 4.90206 10.9846 5.15509C10.0968 5.37348 9.39506 5.8731 8.86873 6.64577ZM3.61312 10.648C3.61312 8.93719 3.6101 7.22645 3.61749 5.51572C3.61825 5.33007 3.56885 5.27449 3.38378 5.276C2.42109 5.28394 1.45825 5.28341 0.495561 5.27638C0.315165 5.27502 0.25438 5.32569 0.254606 5.51428C0.25981 8.92971 0.25981 12.3451 0.254682 15.7605C0.25438 15.9473 0.311696 16.0013 0.494128 15.9999C1.45682 15.9926 2.41958 15.9925 3.38235 16C3.56485 16.0014 3.61847 15.9501 3.61765 15.7619C3.60995 14.0573 3.61312 12.3526 3.61312 10.648ZM0 1.94807C0.000226249 3.01476 0.871436 3.90797 1.93692 3.89731C3.03626 3.88627 3.88937 3.05597 3.88733 1.94587C3.8853 0.816423 3.01688 -0.00624074 1.93488 3.56703e-05C0.781012 0.0067658 0.00203624 0.932726 0 1.94807Z"></path>
				</svg>