<svg width="20" height="20" viewBox="0 0 20 20" xmlns="http://www.w3.org/2000/svg"><path d="M8.8,19c-0.4,0-0.8-0.1-1-0.2l-0.2-0.1c-0.1,0-0.1-0.1-0.1-0.1c-0.1-0.1-0.2-0.2-0.3-0.2 c-0.2-0.1-0.4-0.3-0.6-0.6c-0.4-0.4-1-1-1.7-1.7c-1.3-1.4-2.9-3.1-4.3-4.6c-0.8-0.9-0.9-2.2-0.3-3.2c0.6-1,1.8-1.4,2.9-1.2 l0.2,0.1l4.3,1.6l7.7-7c1.1-1,2.6-0.8,3.5-0.1c0.9,0.7,1.4,2.2,0.5,3.5c-2,3-4.2,6.2-6,8.7c-0.9,1.3-1.6,2.3-2.2,3.1 c-0.3,0.4-0.5,0.7-0.7,0.9c-0.1,0.1-0.2,0.3-0.3,0.3c0,0.1-0.1,0.1-0.2,0.2c-0.1,0-0.2,0.1-0.3,0.2C9.6,18.9,9.2,19,8.8,19z M2.7,9.1c-0.3,0-0.5,0.2-0.6,0.3C2,9.5,1.9,9.9,2.2,10.1c1.4,1.5,3,3.2,4.3,4.5c0.6,0.7,1.2,1.3,1.6,1.7 c0.2,0.2,0.4,0.4,0.5,0.5c0.1,0,0.1,0.1,0.2,0.1l0.1,0l0.1-0.1C9,16.9,9,16.8,9.1,16.7c0.2-0.2,0.4-0.5,0.7-0.9 c0.6-0.8,1.3-1.8,2.2-3.1c1.7-2.5,4-5.8,6-8.7c0.3-0.5-0.1-0.8-0.1-0.8c0,0-0.5-0.4-0.9,0L8.3,11l-5.4-2C2.8,9.1,2.7,9.1,2.7,9.1 z"/></svg>