<svg class="icon" fill="none" viewBox="0 0 20 20" xmlns="http://www.w3.org/2000/svg">
					<path d="M15.8438 5.1065C15.8438 5.1065 15.7969 4.90187 15.7031 4.49261C15.6094 4.08335 15.4427 3.75805 15.2031 3.51669C14.901 3.19138 14.5938 3.00249 14.2812 2.95002C13.9792 2.88706 13.75 2.84508 13.5938 2.82409C13.0417 2.78212 12.4375 2.75064 11.7812 2.72965C11.125 2.70866 10.5156 2.69292 9.95312 2.68243C9.40104 2.67193 8.9375 2.66669 8.5625 2.66669C8.1875 2.66669 8 2.66669 8 2.66669C8 2.66669 7.8125 2.66669 7.4375 2.66669C7.0625 2.66669 6.59375 2.67193 6.03125 2.68243C5.47917 2.69292 4.875 2.70866 4.21875 2.72965C3.5625 2.75064 2.95833 2.78212 2.40625 2.82409C2.25 2.84508 2.01562 2.88706 1.70312 2.95002C1.40104 3.00249 1.09896 3.19138 0.796875 3.51669C0.557292 3.75805 0.390625 4.08335 0.296875 4.49261C0.203125 4.90187 0.15625 5.1065 0.15625 5.1065C0.15625 5.1065 0.130208 5.37934 0.078125 5.92502C0.0260417 6.4707 0 7.06885 0 7.71947V8.94724C0 9.59786 0.0260417 10.196 0.078125 10.7417C0.130208 11.2769 0.15625 11.5445 0.15625 11.5445C0.15625 11.5445 0.203125 11.7543 0.296875 12.1741C0.390625 12.5834 0.557292 12.9087 0.796875 13.15C1.09896 13.4753 1.42188 13.6642 1.76562 13.7167C2.11979 13.7692 2.38542 13.8111 2.5625 13.8426C2.88542 13.8741 3.34896 13.9003 3.95312 13.9213C4.55729 13.9423 5.15625 13.958 5.75 13.9685C6.35417 13.979 6.88021 13.9895 7.32812 14C7.77604 14 8 14 8 14C8 14 8.1875 14 8.5625 14C8.9375 14 9.40104 13.9948 9.95312 13.9843C10.5156 13.9738 11.125 13.958 11.7812 13.9371C12.4375 13.9056 13.0417 13.8688 13.5938 13.8269C13.75 13.8164 13.9792 13.7849 14.2812 13.7324C14.5938 13.6695 14.901 13.4753 15.2031 13.15C15.4427 12.9087 15.6094 12.5834 15.7031 12.1741C15.7969 11.7543 15.8438 11.5445 15.8438 11.5445C15.8438 11.5445 15.8698 11.2769 15.9219 10.7417C15.974 10.196 16 9.59786 16 8.94724V7.71947C16 7.06885 15.974 6.4707 15.9219 5.92502C15.8698 5.37934 15.8438 5.1065 15.8438 5.1065ZM6.34375 10.4269V5.89354L10.6719 8.16021L6.34375 10.4269Z" fill="#797B7E"></path>
				</svg>